STARTFONT 2.1
FONT -thai-dbthaitext-bold-i-normal--69-501-100-100-p-209-tis620-0
SIZE 50 100 100
FONTBOUNDINGBOX 94 79 -24 -28
STARTPROPERTIES 25
FOUNDRY "thai"
FAMILY_NAME "dbthaitext"
WEIGHT_NAME "bold"
SLANT "i"
SETWIDTH_NAME "normal"
ADD_STYLE_NAME ""
PIXEL_SIZE 69
POINT_SIZE 501
RESOLUTION_X 100
RESOLUTION_Y 100
SPACING "p"
AVERAGE_WIDTH 209
CHARSET_REGISTRY "tis620"
CHARSET_ENCODING "0"
FONT "-thai-dbthaitext-bold-i-normal--69-501-100-100-p-209-tis620-0"
COPYRIGHT "Typeface (c) The Monotype Corporation plc. Data (c) The Monotype Corporation plc/Type Solutions Inc. 1990-1992. All Rights Reserved"
RAW_PIXELSIZE 1000
RAW_POINTSIZE 723
RAW_ASCENT 738
RAW_DESCENT 408
RAW_AVERAGE_WIDTH 3023
FACE_NAME "DBThaiTextBoldItalic"
DEFAULT_CHAR 0
FONT_ASCENT 51
FONT_DESCENT 28
ENDPROPERTIES
CHARS 190
STARTCHAR space
ENCODING 32
SWIDTH 244 0
DWIDTH 17 0
BBX 0 0 0 0
BITMAP
ENDCHAR
STARTCHAR exclam
ENCODING 33
SWIDTH 187 0
DWIDTH 13 0
BBX 15 29 0 0
BITMAP
007e
007c
00fc
00fc
00fc
00f8
01f8
01f8
01f0
03f0
03e0
03e0
03e0
03c0
07c0
0780
0780
0700
0700
0e00
0e00
0000
0000
3e00
7e00
7e00
7e00
fc00
fc00
ENDCHAR
STARTCHAR quotedbl
ENCODING 34
SWIDTH 273 0
DWIDTH 19 0
BBX 16 11 2 18
BITMAP
3c3f
7c3e
7c3e
7c3e
f83e
f87c
f07c
f078
e070
e070
c060
ENDCHAR
STARTCHAR numbersign
ENCODING 35
SWIDTH 316 0
DWIDTH 22 0
BBX 27 29 -2 -2
BITMAP
0003c3c0
0003c3c0
00078780
00078780
000f0f00
000f0f00
001e1e00
03ffffc0
03ffffc0
07ffff80
07ffff80
07ffff80
00f0f800
00f0f000
01e1e000
01e1e000
03c3c000
7ffffc00
7ffffc00
7ffff800
fffff800
fffff800
1e1f0000
1e1e0000
3c3c0000
3c3c0000
78780000
78780000
80800000
ENDCHAR
STARTCHAR dollar
ENCODING 36
SWIDTH 316 0
DWIDTH 22 0
BBX 24 35 -1 -5
BITMAP
0000e0
0000c0
0007f8
003ffc
007ffe
00ffff
01fbbf
03e31f
03c71f
07c71f
07c600
07ce00
07ee00
07fc00
07ff00
03ffc0
01ffe0
007ff0
003ff0
0033f8
0031f0
0071f0
f871f0
f861e0
f8e3e0
fce7c0
feffc0
7fff80
7ffe00
3ff800
07c000
038000
030000
030000
070000
ENDCHAR
STARTCHAR percent
ENCODING 37
SWIDTH 504 0
DWIDTH 35 0
BBX 29 29 3 -1
BITMAP
00f00070
03f800e0
0ffc01c0
1ffc01c0
3e3e0380
781e0700
781e0e00
f01c1c00
f03c3800
f0387000
f8f87000
fff0e000
7fe1c000
3f838000
0e0707c0
000e0ff0
001c3ff0
001c7ff8
0038f8f8
0070e078
00e1e078
01c1c078
0383c070
0303c0f0
0703f7e0
0e01ffc0
1c01ff80
3800fe00
70000000
ENDCHAR
STARTCHAR ampersand
ENCODING 38
SWIDTH 403 0
DWIDTH 28 0
BBX 26 30 0 -1
BITMAP
0001f800
0007fc00
001ffe00
003ffe00
003ffe00
007c3e00
00fc3e00
00fc3e00
00fc7c00
00fcf800
00fff000
00ffe000
007fc000
007f0000
03ff87c0
07ff87c0
1fffcf80
1f9fcf80
3e0fdf00
7c0ffe00
7c07fc00
fc07f800
fc03f000
fc07f800
fe1ff800
fffffc00
7ffffc00
7ffcfe00
3ff87e00
07c00000
ENDCHAR
STARTCHAR apostrophe
ENCODING 39
SWIDTH 129 0
DWIDTH 9 0
BBX 7 11 2 18
BITMAP
3e
7c
7c
7c
fc
f8
f8
f0
e0
e0
c0
ENDCHAR
STARTCHAR parenleft
ENCODING 40
SWIDTH 187 0
DWIDTH 13 0
BBX 17 37 1 -8
BITMAP
000700
000e00
001e00
003c00
003800
007800
00f000
01e000
03e000
03c000
078000
0f8000
0f0000
1f0000
1e0000
3e0000
3c0000
3c0000
7c0000
7c0000
780000
780000
f80000
f80000
f80000
f00000
f00000
f00000
f00000
f00000
f00000
f00000
700000
780000
780000
780000
780000
ENDCHAR
STARTCHAR parenright
ENCODING 41
SWIDTH 187 0
DWIDTH 13 0
BBX 18 37 -5 -8
BITMAP
000f00
000f00
000780
000780
000780
000780
0007c0
0007c0
0007c0
0007c0
0007c0
0007c0
0007c0
0007c0
0007c0
000f80
000f80
000f80
001f80
001f00
001f00
003e00
003e00
007c00
007c00
00f800
00f800
01f000
03e000
03e000
07c000
0f8000
0f0000
1e0000
3c0000
780000
f00000
ENDCHAR
STARTCHAR asterisk
ENCODING 42
SWIDTH 216 0
DWIDTH 15 0
BBX 14 14 0 15
BITMAP
00e0
01c0
01c0
01c0
3b9c
7ffc
7ffc
1fc0
0fc0
3fc0
7fc0
f1e0
61c0
2100
ENDCHAR
STARTCHAR plus
ENCODING 43
SWIDTH 331 0
DWIDTH 23 0
BBX 21 20 1 -1
BITMAP
001f00
001f00
001e00
003e00
003e00
007c00
007c00
7ffff8
7ffff8
7ffff0
fffff0
fffff0
01f000
01f000
03e000
03e000
03e000
03c000
07c000
070000
ENDCHAR
STARTCHAR comma
ENCODING 44
SWIDTH 201 0
DWIDTH 14 0
BBX 8 11 3 -4
BITMAP
04
1f
3f
3f
3f
3e
0e
1c
38
60
80
ENDCHAR
STARTCHAR minus
ENCODING 45
SWIDTH 187 0
DWIDTH 13 0
BBX 12 5 0 8
BITMAP
3ff0
7fe0
7fe0
7fe0
ffc0
ENDCHAR
STARTCHAR period
ENCODING 46
SWIDTH 144 0
DWIDTH 10 0
BBX 6 6 2 0
BITMAP
18
7c
fc
fc
f8
70
ENDCHAR
STARTCHAR slash
ENCODING 47
SWIDTH 158 0
DWIDTH 11 0
BBX 20 29 -5 -1
BITMAP
000070
000060
0000c0
0001c0
000180
000380
000300
000600
000e00
000c00
001800
001800
003000
007000
006000
00c000
00c000
018000
038000
030000
060000
0e0000
0c0000
1c0000
180000
300000
700000
600000
e00000
ENDCHAR
STARTCHAR 0
ENCODING 48
SWIDTH 316 0
DWIDTH 22 0
BBX 23 30 -1 -1
BITMAP
000080
001ff8
007ffc
00fffc
01fffe
03fdfe
03f07e
07e07e
0fc07e
0fc07e
1f807e
1f80fc
1f80fc
3f00fc
3f00f8
3f01f8
7e01f8
7e03f0
7e03f0
7c03f0
fc07e0
fc07e0
fc0fc0
fc0fc0
fc3f80
ffff00
fffe00
7ffc00
3ff000
0fc000
ENDCHAR
STARTCHAR 1
ENCODING 49
SWIDTH 316 0
DWIDTH 22 0
BBX 15 28 4 0
BITMAP
001e
003e
007c
00fc
07fc
7ff8
7ff8
fff8
fff0
03f0
03f0
03e0
07e0
07e0
07c0
0fc0
0fc0
0f80
0f80
1f80
1f00
1f00
3f00
3e00
3e00
7e00
7c00
7c00
ENDCHAR
STARTCHAR 2
ENCODING 50
SWIDTH 316 0
DWIDTH 22 0
BBX 26 29 -4 0
BITMAP
00003800
0003ff00
000fff80
001fff80
003fffc0
007f1fc0
00fc0fc0
00f80fc0
01f80fc0
01f00fc0
03f01f80
00001f80
00003f00
00007e00
0000fc00
0003f800
0007f000
001fc000
007f8000
00fe0000
03f80000
07f00000
0fc00000
1f800000
3ffff800
3ffff000
7ffff000
7ffff000
ffffe000
ENDCHAR
STARTCHAR 3
ENCODING 51
SWIDTH 316 0
DWIDTH 22 0
BBX 23 30 -1 -1
BITMAP
0000c0
001ff8
003ffc
00fffe
01fffe
01f07e
03e03e
07c03e
07c03c
07c07c
000078
0000f8
0007f0
003fc0
003fc0
003fe0
007fe0
0007f0
0003f0
0003f0
0003e0
f803e0
f807e0
f807c0
f80f80
fe3f80
ffff00
7ffe00
3ff800
0fe000
ENDCHAR
STARTCHAR 4
ENCODING 52
SWIDTH 316 0
DWIDTH 22 0
BBX 24 28 -2 0
BITMAP
00007f
0000ff
0001fe
0003fe
0007fe
000ffc
000ffc
001efc
003cf8
0079f8
00f1f8
01e1f0
03c3f0
0783f0
0f07e0
1e07e0
3c07e0
7ffff8
7ffff8
7ffff8
fffff0
fffff0
001f80
001f00
003f00
003f00
003e00
007e00
ENDCHAR
STARTCHAR 5
ENCODING 53
SWIDTH 316 0
DWIDTH 22 0
BBX 25 29 -1 -1
BITMAP
003fff80
003fff80
007fff00
007fff00
00ffff00
00f00000
01e00000
01e00000
03c00000
03c78000
07ffe000
07fff000
0ffff000
0ffff000
0f83f800
1f01f800
0001f800
0001f000
0001f000
0001f000
0003e000
f803e000
f807c000
fc1f8000
ffff8000
7fff0000
7ffc0000
3ff80000
0fc00000
ENDCHAR
STARTCHAR 6
ENCODING 54
SWIDTH 316 0
DWIDTH 22 0
BBX 23 29 0 -1
BITMAP
0007f0
001ffc
007ffc
00fffe
01f07e
03e03e
07c000
078000
0f8000
0f0000
1f3fc0
1fffe0
3fffe0
3ffff0
3f83f0
7f03f0
7e01f0
7c01f0
7c03e0
f803e0
f807e0
f807c0
f80f80
fc1f80
ffff00
7ffe00
7ffc00
3ff000
0f8000
ENDCHAR
STARTCHAR 7
ENCODING 55
SWIDTH 316 0
DWIDTH 22 0
BBX 25 28 0 0
BITMAP
07ffff80
07ffff80
0fffff00
0fffff00
0ffffe00
00007c00
0000f800
0001f000
0003e000
0007c000
000f8000
001f0000
003e0000
007e0000
00fc0000
01f80000
03f00000
03f00000
07e00000
0fc00000
0fc00000
1f800000
1f000000
3f000000
3e000000
7e000000
7c000000
fc000000
ENDCHAR
STARTCHAR 8
ENCODING 56
SWIDTH 316 0
DWIDTH 22 0
BBX 24 29 -1 -1
BITMAP
0007f0
001ffc
007ffe
00ffff
01f83f
01f01f
03e01f
03c01f
07c03e
07c07c
03e0fc
03fff0
01ffe0
03ffe0
0ffff0
1fc3f8
3f03f8
3e01f8
7e01f8
7c03f0
fc03f0
fc07f0
fc07e0
fe0fc0
ffff80
7fff00
7ffe00
3ff800
07c000
ENDCHAR
STARTCHAR 9
ENCODING 57
SWIDTH 316 0
DWIDTH 22 0
BBX 23 30 -1 -1
BITMAP
0007e0
001ff8
007ffc
00fffc
01fffe
03f87e
03e03e
07c03e
07803e
0f803e
0f803e
0f007c
1f00fc
1f80fc
1f83fc
1ffff8
0ffff8
0ffff0
07fdf0
03f1f0
0003e0
0003c0
0407c0
f80780
fc0f00
fc3f00
fffe00
7ffc00
3ff000
1f8000
ENDCHAR
STARTCHAR colon
ENCODING 58
SWIDTH 172 0
DWIDTH 12 0
BBX 11 22 1 0
BITMAP
01e0
03e0
03e0
07c0
0380
0000
0000
0000
0000
0000
0000
0000
0000
0000
0000
0000
1000
7800
7c00
f800
f800
7000
ENDCHAR
STARTCHAR semicolon
ENCODING 59
SWIDTH 201 0
DWIDTH 14 0
BBX 13 25 0 -4
BITMAP
0070
00f8
01f8
01f8
01f0
01e0
0000
0000
0000
0000
0000
0000
0000
0000
0400
1f00
3f00
3f00
3f00
3f00
0e00
0c00
3800
7000
8000
ENDCHAR
STARTCHAR less
ENCODING 60
SWIDTH 331 0
DWIDTH 23 0
BBX 23 19 1 0
BITMAP
000002
00001e
0000fc
0007fc
003ffc
01fff8
07ffc0
3ffe00
7ff000
7f8000
7f8000
fff000
7ffc00
1fff00
07ffc0
00ffc0
003fc0
000f80
000180
ENDCHAR
STARTCHAR equal
ENCODING 61
SWIDTH 331 0
DWIDTH 23 0
BBX 24 14 0 2
BITMAP
0fffff
0fffff
0ffffe
0ffffe
1ffffe
000000
000000
000000
000000
7ffff8
7ffff0
7ffff0
fffff0
fffff0
ENDCHAR
STARTCHAR greater
ENCODING 62
SWIDTH 331 0
DWIDTH 23 0
BBX 23 20 -1 -1
BITMAP
020000
038000
07e000
07fc00
07ff00
07ffc0
01fff8
003ffe
000ffe
0001fc
0007fc
003ffc
01fff8
0fffc0
3ffe00
7ff000
7f8000
7c0000
f00000
800000
ENDCHAR
STARTCHAR question
ENCODING 63
SWIDTH 345 0
DWIDTH 24 0
BBX 20 29 4 0
BITMAP
00ff80
03ffc0
07ffe0
0ffff0
1ffff0
3f87f0
3e03f0
7c03f0
7c03f0
fc03e0
0007e0
000fc0
001f80
007f00
00fe00
01fc00
03f000
07c000
078000
0f8000
0f0000
000000
000000
3f0000
3f0000
3f0000
7e0000
7e0000
7e0000
ENDCHAR
STARTCHAR at
ENCODING 64
SWIDTH 547 0
DWIDTH 38 0
BBX 39 34 0 -5
BITMAP
000003fc00
00003fff80
0001ffffe0
0003f007f0
000fc001f8
001f000078
003c00003c
00f800003e
01f000001e
03e01fce1e
03c03ffe1e
0780f9fc1e
0f01e0fc1e
1e0380f81e
1e0700f01c
3c0f00f03c
381e00e03c
781c01e078
783c03c070
f0380380f0
f0780781e0
f0780f03c0
f07c1f0780
f07effbf00
f03ffffe00
f83fc7f800
f80f01c000
7c00000000
7e00000000
3f00020000
1fe01e0000
0ffffe0000
03fffe0000
007fe00000
ENDCHAR
STARTCHAR A
ENCODING 65
SWIDTH 403 0
DWIDTH 28 0
BBX 27 29 -4 0
BITMAP
00001fe0
00001fe0
00003fe0
00007fe0
00007fe0
0000ffe0
0001ffe0
0001ffe0
0003f7e0
0007e7e0
0007e7e0
000fc7e0
001f87e0
001f87e0
003f07e0
007e07e0
007e07e0
00fc07e0
01ffffe0
01ffffe0
03ffffe0
07ffffe0
07ffffe0
0fc007e0
1f8007e0
1f0007e0
3f0007e0
7e0007e0
7c0007e0
ENDCHAR
STARTCHAR B
ENCODING 66
SWIDTH 403 0
DWIDTH 28 0
BBX 29 29 -1 0
BITMAP
007fff80
007fffe0
007ffff0
00fffff8
00fffff8
00f803f8
01f801f8
01f801f8
01f801f0
03f001f0
03f003e0
03f00fc0
07ffffc0
07ffff80
07ffff00
0fffff80
0fffff80
0fc00fc0
1f800fc0
1f800fc0
1f800f80
3f000f80
3f001f00
3f007f00
7ffffe00
7ffffc00
7ffff800
ffffe000
ffff8000
ENDCHAR
STARTCHAR C
ENCODING 67
SWIDTH 403 0
DWIDTH 28 0
BBX 28 31 1 -1
BITMAP
0001fc00
000fff00
001fff80
007fffc0
00ffffe0
01fffff0
03fc0ff0
03f003f0
07e003f0
0fc003f0
0f8003f0
1f000000
3f000000
3e000000
3e000000
7e000000
7c000000
7c000000
fc000000
fc000000
fc001f00
fc003f00
fc003e00
fc007e00
fe00fc00
7f87f800
7ffff000
3fffe000
3fffc000
0ffe0000
03f00000
ENDCHAR
STARTCHAR D
ENCODING 68
SWIDTH 403 0
DWIDTH 28 0
BBX 30 29 -2 0
BITMAP
007fffc0
007fffe0
007ffff0
00fffff8
00fffff8
00f807fc
01f801fc
01f801fc
01f801fc
03f001fc
03f001fc
03f001fc
07e001f8
07e001f8
07e001f8
0fc003f0
0fc003f0
0fc007e0
1f8007e0
1f800fc0
1f801fc0
3f003f80
3f007f00
3f01fe00
7ffffc00
7ffff800
7ffff000
ffffc000
ffff0000
ENDCHAR
STARTCHAR E
ENCODING 69
SWIDTH 374 0
DWIDTH 26 0
BBX 30 29 -1 0
BITMAP
007ffffc
007ffffc
007ffff8
00fffff8
00fffff8
00f80000
01f80000
01f80000
01f80000
03f00000
03f00000
03f00000
07ffff80
07ffff80
07ffff00
0fffff00
0fffff00
0fc00000
1f800000
1f800000
1f800000
3f000000
3f000000
3f000000
7ffffe00
7ffffc00
7ffffc00
fffffc00
fffffc00
ENDCHAR
STARTCHAR F
ENCODING 70
SWIDTH 345 0
DWIDTH 24 0
BBX 29 29 -1 0
BITMAP
007ffff8
007ffff8
007ffff0
00fffff0
00fffff0
00f80000
01f80000
01f80000
01f00000
03f00000
03f00000
03f00000
07fffe00
07fffe00
07fffe00
0ffffc00
0ffffc00
0f800000
1f800000
1f800000
1f000000
1f000000
3f000000
3e000000
3e000000
7e000000
7e000000
7c000000
fc000000
ENDCHAR
STARTCHAR G
ENCODING 71
SWIDTH 446 0
DWIDTH 31 0
BBX 29 31 1 -1
BITMAP
0001ff00
000fffc0
001fffe0
003ffff0
007ffff0
00ff0ff8
01fc03f8
03f001f8
07e001f8
0fc000f8
0f800000
1f800000
3f000000
3e000000
3e000000
7e00ffe0
7c01ffe0
7c01ffe0
fc01ffc0
fc01ffc0
fc0007c0
fc000f80
fc001f80
fe003f80
fe007f00
7f81ff00
7fffff00
3fffde00
1fff9e00
0ffe1e00
03f01000
ENDCHAR
STARTCHAR H
ENCODING 72
SWIDTH 403 0
DWIDTH 28 0
BBX 32 29 -2 0
BITMAP
007c003f
007c003e
00fc007e
00fc007e
00f8007c
00f8007c
01f800fc
01f800f8
01f000f8
03f001f8
03f001f8
03fffff0
07fffff0
07fffff0
07ffffe0
0fffffe0
0f8007e0
0f8007c0
1f800fc0
1f800fc0
1f000f80
3f001f80
3f001f80
3e001f00
7e001f00
7e003f00
7e003e00
fc003e00
fc007e00
ENDCHAR
STARTCHAR I
ENCODING 73
SWIDTH 158 0
DWIDTH 11 0
BBX 15 29 -2 0
BITMAP
007e
007e
00fc
00fc
00fc
01f8
01f8
01f8
03f0
03f0
03f0
03e0
07e0
07e0
07c0
0fc0
0fc0
0f80
1f80
1f80
1f80
3f00
3f00
3f00
3e00
7e00
7e00
7c00
fc00
ENDCHAR
STARTCHAR J
ENCODING 74
SWIDTH 316 0
DWIDTH 22 0
BBX 26 30 -2 -1
BITMAP
00000fc0
00000f80
00001f80
00001f80
00001f00
00003f00
00003f00
00003f00
00007e00
00007e00
00007e00
0000fc00
0000fc00
0001fc00
0001f800
0001f800
0003f800
0003f000
7f03f000
7f07f000
7e07e000
7e07e000
fe0fe000
fe0fc000
fe3fc000
ffff8000
ffff0000
7ffe0000
3ff80000
0fc00000
ENDCHAR
STARTCHAR K
ENCODING 75
SWIDTH 403 0
DWIDTH 28 0
BBX 34 29 -2 0
BITMAP
007e003f80
007e007f00
007e00fe00
00fc01f800
00fc07f000
00fc0fe000
01f81fc000
01f83f8000
01f87f0000
03f1fc0000
03f3f80000
03f7f00000
07efe00000
07ffe00000
07ffe00000
0ffff00000
0ffff00000
0ff3f80000
1fe3f80000
1fc1fc0000
1f81fc0000
3f81fc0000
3f00fe0000
3f00fe0000
7f007f0000
7e007f0000
7e007f8000
fc003f8000
fc003fc000
ENDCHAR
STARTCHAR L
ENCODING 76
SWIDTH 345 0
DWIDTH 24 0
BBX 21 29 -1 0
BITMAP
007e00
007c00
007c00
00fc00
00fc00
00f800
01f800
01f800
01f000
03f000
03f000
03e000
07e000
07e000
07c000
0fc000
0fc000
0fc000
1f8000
1f8000
1f8000
3f0000
3f0000
3f0000
7ffff8
7ffff8
7ffff0
fffff0
fffff0
ENDCHAR
STARTCHAR M
ENCODING 77
SWIDTH 475 0
DWIDTH 33 0
BBX 37 29 -2 0
BITMAP
007fc00ff8
007f800ff0
007f801ff0
00ff801ff0
00ff803fe0
00ff807fe0
01ff807fe0
01ff80f7e0
01f780ffc0
03f781efc0
03f781efc0
03e783cf80
07e783df80
07ef879f80
07cf8f9f00
0fcf8f3f00
0fcf9f3f00
0fcf9e3e00
1f8f3e7e00
1f8f3c7e00
1f8f787c00
1f0f78fc00
3f0ff0fc00
3f0ff0f800
3e1fe0f800
7e1fe1f800
7e1fc1f800
7c1fc1f000
fc1f83f000
ENDCHAR
STARTCHAR N
ENCODING 78
SWIDTH 403 0
DWIDTH 28 0
BBX 32 29 -2 0
BITMAP
007e003f
007e003e
00fe007e
00fe007e
00ff007c
00ff007c
01ff00fc
01ff80f8
01ff80f8
03ff81f8
03efc1f8
03efc1f0
07e7c3f0
07c7c3f0
07c7e3e0
0fc3e3e0
0f83e7e0
0f83f7c0
1f83f7c0
1f81ffc0
1f01ff80
3f01ff80
3f00ff80
3e00ff00
3e00ff00
7e00ff00
7e007e00
7c007e00
fc007e00
ENDCHAR
STARTCHAR O
ENCODING 79
SWIDTH 446 0
DWIDTH 31 0
BBX 29 31 1 -1
BITMAP
0001fe00
000fff80
003fffe0
007fffe0
00fffff0
01fe1ff0
03fc07f8
03f003f8
07e001f8
0fc001f8
1f8000f8
1f0000f8
3f0000f8
3e0001f8
7e0001f0
7c0001f0
7c0001f0
fc0003e0
fc0003e0
f80007c0
f80007c0
fc000f80
fc001f80
fc003f00
fe00fe00
7f83fc00
7ffff800
3ffff000
3fffc000
0fff8000
03fc0000
ENDCHAR
STARTCHAR P
ENCODING 80
SWIDTH 374 0
DWIDTH 26 0
BBX 29 29 -2 0
BITMAP
007fffc0
007ffff0
007ffff0
00fffff8
00fffff8
00fc03f8
01f801f8
01f801f8
01f801f8
03f003f0
03f003f0
03f007e0
07e007e0
07e01fc0
07ffff80
0fffff00
0ffffe00
0ffffc00
1fffe000
1f800000
1f800000
3f000000
3f000000
3f000000
7e000000
7e000000
7e000000
fc000000
fc000000
ENDCHAR
STARTCHAR Q
ENCODING 81
SWIDTH 446 0
DWIDTH 31 0
BBX 29 32 1 -2
BITMAP
0001fe00
000fff80
003fffe0
007fffe0
00fffff0
01fe0ff0
03fc07f8
03f003f8
07e001f8
0fc001f8
1f8001f8
1f0000f8
3f0000f8
3e0001f8
7e0001f0
7c0001f0
7c0001f0
fc0003e0
f80003e0
f80087c0
f801c7c0
f803ef80
fc07ff80
fc03ff00
fe03fe00
7f87fc00
7ffffc00
3ffffe00
3ffffe00
0fff3e00
03f81c00
00000800
ENDCHAR
STARTCHAR R
ENCODING 82
SWIDTH 403 0
DWIDTH 28 0
BBX 30 29 -1 0
BITMAP
007fffe0
007ffff8
007ffffc
00fffffc
00fffffc
00fc01fc
01f800fc
01f800fc
01f800f8
03f000f8
03f001f0
03f003f0
07e007e0
07ffffc0
07ffff80
0ffffe00
0fffff00
0fffff80
1f801f80
1f801f80
1f001f80
3f001f00
3f003f00
3f003f00
7e003e00
7e003e00
7e007e00
fc007e00
fc007e00
ENDCHAR
STARTCHAR S
ENCODING 83
SWIDTH 374 0
DWIDTH 26 0
BBX 27 31 -1 -1
BITMAP
0003fe00
001fff80
007fffc0
00ffffe0
01ffffe0
01fc1fe0
03f00fe0
03e007e0
07c007e0
07c007e0
07c00000
0fe00000
0ff80000
07ffc000
07fff800
03fffe00
01ffff00
001fff00
0001ff00
00007f00
00003f00
fc003f00
fc003e00
fc007e00
fc007c00
ff01f800
fffff800
7ffff000
3fffc000
1fff0000
07f80000
ENDCHAR
STARTCHAR T
ENCODING 84
SWIDTH 345 0
DWIDTH 24 0
BBX 25 29 3 0
BITMAP
7fffff80
7fffff80
7fffff00
ffffff00
ffffff00
007e0000
00fe0000
00fc0000
00fc0000
01fc0000
01f80000
01f80000
03f80000
03f00000
03f00000
07e00000
07e00000
07e00000
0fc00000
0fc00000
0fc00000
1f800000
1f800000
1f800000
1f000000
3f000000
3f000000
3e000000
7e000000
ENDCHAR
STARTCHAR U
ENCODING 85
SWIDTH 403 0
DWIDTH 28 0
BBX 30 30 1 -1
BITMAP
01f800fc
03f800f8
03f001f8
03f001f8
07f001f0
07e003f0
07e003f0
07e003f0
0fc007e0
0fc007e0
0fc007e0
1f800fc0
1f800fc0
1f800fc0
3f801f80
3f001f80
3f001f80
7f003f00
7e003f00
7e003f00
fe007e00
fe007e00
fe00fc00
fe01fc00
ff07f800
7ffff000
7fffe000
3fffc000
1fff0000
07f00000
ENDCHAR
STARTCHAR V
ENCODING 86
SWIDTH 374 0
DWIDTH 26 0
BBX 25 29 5 0
BITMAP
fc001f00
fc003f00
fc007e00
fc007c00
fc00fc00
fc00f800
fc01f000
fc03f000
fc03e000
fc07c000
fc0fc000
fc0f8000
fc1f0000
fc1f0000
fc3e0000
fc7c0000
f87c0000
f8f80000
f9f00000
f9f00000
fbe00000
ffc00000
ffc00000
ff800000
ff000000
ff000000
fe000000
fc000000
fc000000
ENDCHAR
STARTCHAR W
ENCODING 87
SWIDTH 532 0
DWIDTH 37 0
BBX 37 29 4 0
BITMAP
7e00fc01f0
7e00fc03f0
7e01fc03e0
7e01fc07e0
7e03fc07c0
7e07f80fc0
7e07f80f80
7c0ff81f00
7c0f781f00
7c1e783e00
7c1ef83e00
7c3cf87c00
7c3cf87800
7c78f8f800
7c78f8f000
7cf0f1f000
7cf0f1e000
79e0f3c000
f9e0f3c000
fbc0f78000
fbc0f78000
ff81ff0000
ff81ff0000
ff01fe0000
ff01fc0000
fe01fc0000
fe01f80000
fc01f80000
fc01f00000
ENDCHAR
STARTCHAR X
ENCODING 88
SWIDTH 374 0
DWIDTH 26 0
BBX 34 29 -4 0
BITMAP
003f801f80
003f803f00
003f807e00
001f80fc00
001fc1fc00
001fc3f800
000fc7f000
000fcfe000
000fcfc000
000fff8000
0007ff0000
0007fe0000
0007fc0000
0007f80000
0003f80000
0007f80000
000ff80000
001ff80000
003ffc0000
007efc0000
00fefc0000
01fcfe0000
03f8fe0000
07f07e0000
07e07f0000
0fc07f0000
1f807f0000
3f003f0000
7e003f8000
ENDCHAR
STARTCHAR Y
ENCODING 89
SWIDTH 374 0
DWIDTH 26 0
BBX 25 29 6 0
BITMAP
fe003f00
fe007e00
fe00fe00
7e00fc00
7f01f800
7f03f000
7f07e000
7f0fe000
3f0fc000
3f1f8000
3f3f0000
3f7e0000
3f7e0000
1ffc0000
1ff80000
1ff00000
1fe00000
1fe00000
0fc00000
1f800000
1f800000
1f800000
3f000000
3f000000
3f000000
7e000000
7e000000
7e000000
fc000000
ENDCHAR
STARTCHAR Z
ENCODING 90
SWIDTH 345 0
DWIDTH 24 0
BBX 31 29 -3 0
BITMAP
007ffffe
007ffffe
007ffffc
00fffffc
00fffffc
000003f8
000007f0
00000fe0
00001fc0
00003f00
00007e00
0001fc00
0003f800
0007f000
000fe000
001fc000
003f8000
007f0000
00fe0000
01f80000
07f00000
0fe00000
1fc00000
3f800000
7ffffe00
7ffffe00
7ffffc00
fffffc00
fffffc00
ENDCHAR
STARTCHAR bracketleft
ENCODING 91
SWIDTH 187 0
DWIDTH 13 0
BBX 21 38 -3 -8
BITMAP
0000f8
001ff8
001ff0
001ff0
003e00
003e00
003e00
007c00
007c00
007c00
007800
00f800
00f800
00f800
01f000
01f000
01f000
03e000
03e000
03e000
07c000
07c000
07c000
07c000
0f8000
0f8000
0f8000
1f0000
1f0000
1f0000
3e0000
3e0000
3e0000
7ec000
7fc000
7fc000
ffc000
f80000
ENDCHAR
STARTCHAR backslash
ENCODING 92
SWIDTH 158 0
DWIDTH 11 0
BBX 3 29 4 -1
BITMAP
e0
e0
e0
e0
e0
e0
e0
e0
e0
e0
e0
e0
e0
e0
e0
e0
e0
e0
e0
e0
e0
e0
e0
e0
e0
e0
e0
e0
e0
ENDCHAR
STARTCHAR bracketright
ENCODING 93
SWIDTH 187 0
DWIDTH 13 0
BBX 21 38 -5 -8
BITMAP
0000f8
001ff8
001ff0
001ff0
0003f0
0003e0
0003e0
0003e0
0007c0
0007c0
0007c0
000f80
000f80
000f80
001f80
001f00
001f00
001f00
003e00
003e00
003e00
007c00
007c00
007c00
007800
00f800
00f800
00f000
01f000
01f000
01f000
03e000
03e000
03e000
7fc000
7fc000
7fc000
f80000
ENDCHAR
STARTCHAR asciicircum
ENCODING 94
SWIDTH 331 0
DWIDTH 23 0
BBX 18 17 0 11
BITMAP
000f80
001f80
003f80
007f80
007f80
00ff80
01f780
01e780
03e780
07c780
0787c0
0f07c0
1f07c0
3e07c0
3c07c0
7c03c0
f803c0
ENDCHAR
STARTCHAR underscore
ENCODING 95
SWIDTH 316 0
DWIDTH 22 0
BBX 25 3 -2 -8
BITMAP
7fffff80
ffffff80
ffffff00
ENDCHAR
STARTCHAR grave
ENCODING 96
SWIDTH 172 0
DWIDTH 12 0
BBX 12 12 0 6
BITMAP
0380
0fe0
1ff0
3ff0
7ff0
7ff0
ffe0
ffe0
ffc0
ffc0
7f80
3e00
ENDCHAR
STARTCHAR a
ENCODING 97
SWIDTH 316 0
DWIDTH 22 0
BBX 22 23 -1 -1
BITMAP
001fe0
007ff8
01fff8
03fffc
03f0fc
07c07c
0fc07c
0f80f8
0001f8
003ff8
03fff0
0ffff0
1ff9f0
3f03e0
7e03e0
7c03e0
fc07e0
fc0fc0
ffffc0
ffffc0
ffefc0
7fcfc0
3e0000
ENDCHAR
STARTCHAR b
ENCODING 98
SWIDTH 345 0
DWIDTH 24 0
BBX 24 30 -2 -1
BITMAP
007c00
007c00
007c00
00f800
00f800
00f800
01f000
01f0f0
01f3fc
03fffe
03ffff
03ffff
07f87f
07f03f
07e03f
0fc01f
0f801f
0f803f
1f003e
1f003e
1f007c
3f007c
3f00f8
3f01f8
7f83f0
7fffe0
7fffc0
ffff80
fdff00
007800
ENDCHAR
STARTCHAR c
ENCODING 99
SWIDTH 316 0
DWIDTH 22 0
BBX 21 23 1 -1
BITMAP
003fc0
007ff0
01fff0
03fff8
07fff8
0fe1f8
0f80f8
1f00f8
3f00f8
3e0000
7e0000
7c0000
7c0000
fc0000
f80000
fc07c0
fc0fc0
fc0f80
ffff00
7ffe00
7ffc00
3ff000
0fc000
ENDCHAR
STARTCHAR d
ENCODING 100
SWIDTH 345 0
DWIDTH 24 0
BBX 27 30 -1 -1
BITMAP
000007e0
000007e0
000007c0
00000fc0
00000fc0
00000f80
00001f80
003f1f80
00ff9f00
01ffff00
07ffff00
07fffe00
0fe1fe00
1f81fe00
1f00fc00
3f00fc00
7e00fc00
7e00f800
7c01f800
fc01f800
fc01f000
fc03f000
fc07f000
fc0fe000
fe1fe000
ffffe000
ffffc000
7ff7c000
3fefc000
1f080000
ENDCHAR
STARTCHAR e
ENCODING 101
SWIDTH 316 0
DWIDTH 22 0
BBX 22 23 0 -1
BITMAP
001fc0
00fff0
01fff8
03fff8
07fffc
0fe1fc
1fc0fc
1f80fc
3f00fc
3f00fc
7ffffc
7ffff8
7ffff8
fc0000
fc0000
fc0000
fc07e0
fe0fc0
ffffc0
7fff00
7ffe00
3ff800
07c000
ENDCHAR
STARTCHAR f
ENCODING 102
SWIDTH 187 0
DWIDTH 13 0
BBX 18 29 -1 0
BITMAP
000fc0
003f80
007f80
00ff80
00fe00
00f800
01f800
01f900
0ffe00
1ffe00
1ffe00
07e000
07e000
07c000
07c000
0fc000
0f8000
0f8000
1f8000
1f8000
1f0000
3f0000
3f0000
3e0000
7e0000
7e0000
7c0000
7c0000
fc0000
ENDCHAR
STARTCHAR g
ENCODING 103
SWIDTH 345 0
DWIDTH 24 0
BBX 28 31 -2 -9
BITMAP
0003f1f0
000ffbf0
003ffbe0
007fffe0
00ffffe0
01fe3fc0
01f81fc0
03f01fc0
07e01f80
07c01f80
0fc01f80
0f801f00
0f801f00
1f803f00
1f803e00
1f807e00
1f80fe00
1fc1fe00
1ffffc00
0ffffc00
0ffffc00
07fcf800
03f1f800
0001f800
0003f000
fc03f000
fe0fe000
ffffc000
7fff8000
3ffe0000
1ff00000
ENDCHAR
STARTCHAR h
ENCODING 104
SWIDTH 345 0
DWIDTH 24 0
BBX 24 29 -2 0
BITMAP
007c00
007c00
007800
00f800
00f800
00f800
01f000
01f070
01f3fe
03efff
03ffff
03ffff
07fc7f
07f03f
07e03e
0fc03e
0f807e
0f807c
1f807c
1f80fc
1f00f8
1f00f8
3f01f8
3e01f0
3e01f0
7e03f0
7c03e0
7c03e0
fc07e0
ENDCHAR
STARTCHAR i
ENCODING 105
SWIDTH 158 0
DWIDTH 11 0
BBX 15 29 -2 0
BITMAP
007e
007e
007c
00fc
00fc
0000
0000
0000
01f0
03f0
03f0
03e0
07e0
07e0
07c0
0fc0
0fc0
0f80
1f80
1f80
1f00
3f00
3f00
3e00
7e00
7e00
7c00
fc00
fc00
ENDCHAR
STARTCHAR j
ENCODING 106
SWIDTH 158 0
DWIDTH 11 0
BBX 20 38 -6 -9
BITMAP
0003f0
0003f0
0003e0
0007e0
0007e0
000000
000000
000000
000f80
000f80
001f80
001f00
001f00
003f00
003e00
003e00
007e00
007c00
007c00
00fc00
00f800
00f800
01f800
01f000
01f000
03f000
03e000
03e000
03e000
07e000
07c000
07c000
0fc000
7f8000
7f8000
7f0000
7e0000
f80000
ENDCHAR
STARTCHAR k
ENCODING 107
SWIDTH 316 0
DWIDTH 22 0
BBX 26 29 -2 0
BITMAP
007e0000
007c0000
007c0000
00fc0000
00f80000
00f80000
01f80000
01f00000
01f01f80
03f07f00
03e0fe00
03e1f800
07e3f000
07c7e000
07dfc000
0fff0000
0fff0000
0fff8000
1fff8000
1fff8000
1fdf8000
1f9fc000
3f0fc000
3f0fc000
3e0fc000
7e0fe000
7c0fe000
7c0fe000
fc07e000
ENDCHAR
STARTCHAR l
ENCODING 108
SWIDTH 158 0
DWIDTH 11 0
BBX 15 29 -2 0
BITMAP
007e
007c
007c
00fc
00f8
00f8
01f8
01f0
01f0
03f0
03e0
03e0
07e0
07e0
07c0
0fc0
0fc0
0f80
0f80
1f80
1f00
1f00
3f00
3e00
3e00
7e00
7c00
7c00
fc00
ENDCHAR
STARTCHAR m
ENCODING 109
SWIDTH 504 0
DWIDTH 35 0
BBX 35 22 -1 0
BITMAP
01f0f01f80
01f3fc7fc0
03f7feffe0
03efffffe0
03ffffffe0
07f0ff87e0
07e07e07e0
07c07c07c0
0f807c07c0
0f80f807c0
0f80f80f80
1f80f80f80
1f01f00f80
1f01f01f00
3f01f01f00
3e03e01f00
3e03e03e00
3e03e03e00
7c03c03e00
7c07c07c00
7c07c07c00
fc07807c00
ENDCHAR
STARTCHAR n
ENCODING 110
SWIDTH 345 0
DWIDTH 24 0
BBX 24 22 -1 0
BITMAP
01f1f8
01f3fe
03f7fe
03efff
03ffff
07f03f
07e03f
07c03e
0fc03e
0f803e
0f807e
1f807c
1f007c
1f00fc
3f00f8
3e00f8
3e01f8
7e01f0
7e01f0
7c03f0
fc03e0
fc03e0
ENDCHAR
STARTCHAR o
ENCODING 111
SWIDTH 345 0
DWIDTH 24 0
BBX 23 23 0 -1
BITMAP
001fe0
007ff8
01fffc
03fffc
07fffe
0ff0fe
1fc0fe
1f807e
3f007e
3f007e
7e007c
7e00fc
7c00fc
fc01f8
fc01f8
fc03f0
fe07f0
fe0fe0
ffffc0
7fff80
7fff00
3ffc00
0fe000
ENDCHAR
STARTCHAR p
ENCODING 112
SWIDTH 345 0
DWIDTH 24 0
BBX 27 31 -2 -9
BITMAP
003e3e00
007e7f80
007cffc0
007dffc0
00ffffe0
00ff8fe0
00fe07e0
00fc07e0
01f807e0
01f807e0
01f007e0
03f007c0
03e007c0
03e00fc0
07e01f80
07e01f80
07e03f00
0ff07e00
0ffffe00
0ffffc00
1ffff800
1f3fe000
1f0f8000
3f000000
3e000000
3e000000
3e000000
7e000000
7c000000
7c000000
fc000000
ENDCHAR
STARTCHAR q
ENCODING 113
SWIDTH 345 0
DWIDTH 24 0
BBX 25 31 1 -9
BITMAP
003f1f80
00ffdf80
01ffdf00
03ffff00
07ffff00
0ff1fe00
0fc0fe00
1f80fe00
3f00fc00
3f00fc00
7e00fc00
7e00f800
7c01f800
fc01f800
fc03f800
fc03f000
fc07f000
fe0ff000
fe3fe000
ffffe000
7fffe000
7ff7c000
1fcfc000
000fc000
000f8000
001f8000
001f8000
001f0000
003f0000
003f0000
003e0000
ENDCHAR
STARTCHAR r
ENCODING 114
SWIDTH 216 0
DWIDTH 15 0
BBX 19 22 -1 0
BITMAP
01f0e0
03f3c0
03f7c0
03efc0
03ffc0
07ff80
07f000
07e000
0fc000
0fc000
0f8000
1f8000
1f0000
1f0000
3f0000
3f0000
3e0000
7e0000
7e0000
7c0000
fc0000
fc0000
ENDCHAR
STARTCHAR s
ENCODING 115
SWIDTH 316 0
DWIDTH 22 0
BBX 22 23 0 -1
BITMAP
001fc0
00fff0
01fff8
03fffc
07e0fc
0f807c
0f807c
0f8000
0ff000
0ffe00
0fffc0
0fffe0
03fff0
007ff0
000ff0
0003f0
fc03e0
fc07e0
fe0fc0
ffff80
7fff00
3ffc00
0fe000
ENDCHAR
STARTCHAR t
ENCODING 116
SWIDTH 187 0
DWIDTH 13 0
BBX 14 28 0 -1
BITMAP
01f8
01f0
01f0
03f0
03e0
03e4
1ffc
1ff8
3ff8
2fc0
0f80
0f80
0f80
1f00
1f00
1f00
3e00
3e00
3e00
7e00
7c00
7c00
fc00
fc00
ff00
ff00
7e00
3e00
ENDCHAR
STARTCHAR u
ENCODING 117
SWIDTH 345 0
DWIDTH 24 0
BBX 24 22 1 -1
BITMAP
07c03f
07c03f
0fc03e
0f807e
0f807e
1f807c
1f00fc
1f00fc
3f00f8
3e01f8
3e01f8
7e01f0
7c01f0
7c03f0
fc03e0
fc07e0
fe1fe0
ffffc0
ffffc0
ffefc0
7fcf80
1f0000
ENDCHAR
STARTCHAR v
ENCODING 118
SWIDTH 316 0
DWIDTH 22 0
BBX 21 21 4 0
BITMAP
fc01f0
fc03f0
fc03e0
fc07c0
fc0fc0
fc0f80
fc1f00
fc3f00
fc3e00
fc7c00
fcf800
f8f800
f9f000
fbe000
fbe000
ffc000
ff8000
ff8000
ff0000
fe0000
fe0000
ENDCHAR
STARTCHAR w
ENCODING 119
SWIDTH 446 0
DWIDTH 31 0
BBX 31 21 3 0
BITMAP
7e07e07c
7c0fe0fc
7c0fe0f8
7c1fc1f8
7c1fc1f0
7c3fc3e0
7c3fc3e0
7c7bc7c0
7cfbcfc0
7cf3cf80
fdf3df00
f9e79f00
fbc7be00
fbc7be00
ff87fc00
ff87f800
ff07f800
ff07f000
fe07f000
fe07e000
fc0fc000
ENDCHAR
STARTCHAR x
ENCODING 120
SWIDTH 316 0
DWIDTH 22 0
BBX 27 21 -3 0
BITMAP
01fc0fc0
00fc1f80
00fc3f00
00fc7e00
007e7c00
007ef800
007ff000
003fe000
003fc000
003f8000
003f8000
007f8000
00ff8000
01ffc000
01ffc000
03efc000
07e7e000
0fc7e000
1f87e000
3f07f000
7e03f000
ENDCHAR
STARTCHAR y
ENCODING 121
SWIDTH 316 0
DWIDTH 22 0
BBX 28 30 -2 -9
BITMAP
01f803e0
01f807e0
01f807c0
01f80f80
01f81f80
01f81f00
01f83e00
01f87e00
01f87c00
01f8f800
01f9f800
01f9f000
01fbe000
01fbe000
01f7c000
01ff8000
01ff8000
01ff0000
01fe0000
01fe0000
01fc0000
01f80000
01f80000
03f00000
07e00000
7fc00000
7fc00000
7f800000
7f000000
f8000000
ENDCHAR
STARTCHAR z
ENCODING 122
SWIDTH 288 0
DWIDTH 20 0
BBX 24 21 -3 0
BITMAP
00ffff
01ffff
01fffe
01fffe
03fffe
0001fc
0003f8
0007e0
001fc0
003f80
007e00
01fc00
03f800
07f000
1fc000
3f8000
7fffe0
7fffc0
7fffc0
ffffc0
ffffc0
ENDCHAR
STARTCHAR braceleft
ENCODING 123
SWIDTH 216 0
DWIDTH 15 0
BBX 18 37 0 -8
BITMAP
0007c0
000f80
001f80
003f80
007c00
007800
00f800
00f000
00f000
01f000
01e000
01e000
01e000
03c000
03c000
07c000
1f8000
3f0000
780000
7e0000
3f0000
1f0000
1f0000
1e0000
1e0000
3e0000
3c0000
3c0000
7c0000
780000
780000
f80000
f80000
fe0000
fe0000
7e0000
3c0000
ENDCHAR
STARTCHAR bar
ENCODING 124
SWIDTH 158 0
DWIDTH 11 0
BBX 15 37 -2 -8
BITMAP
000e
001e
001c
001c
003c
0038
0038
0078
0070
0070
0070
00e0
00e0
00e0
01c0
01c0
01c0
0380
0380
0380
0700
0700
0700
0e00
0e00
0e00
1c00
1c00
1c00
3c00
3800
3800
7800
7000
7000
f000
e000
ENDCHAR
STARTCHAR braceright
ENCODING 125
SWIDTH 216 0
DWIDTH 15 0
BBX 18 37 -3 -8
BITMAP
000f80
001f80
001fc0
001fc0
0007c0
0007c0
000780
000780
000f80
000f00
000f00
001f00
001e00
001e00
003e00
003e00
003f00
001f80
000780
003f00
007c00
00f800
00f000
00f000
01f000
01e000
01e000
03e000
03c000
03c000
07c000
078000
0f8000
7f0000
7f0000
fc0000
f80000
ENDCHAR
STARTCHAR asciitilde
ENCODING 126
SWIDTH 331 0
DWIDTH 23 0
BBX 20 7 1 6
BITMAP
030000
0fc000
3fe070
3ff8e0
70ffc0
e07f80
001f00
ENDCHAR
STARTCHAR exclamdown
ENCODING 161
SWIDTH 374 0
DWIDTH 26 0
BBX 24 24 0 0
BITMAP
000ff0
003ffc
00fffe
03f03f
07801f
0fe00f
0ff80f
01f80f
03f01e
07801e
07801e
0f003c
0f003c
1e003c
1e0078
1e0078
3c0078
3c0070
3c00f0
3c00f0
7800e0
7801e0
7801e0
f001c0
ENDCHAR
STARTCHAR cent
ENCODING 162
SWIDTH 360 0
DWIDTH 25 0
BBX 23 25 2 -1
BITMAP
03f81e
0ffc1e
3ffe3c
3fde3c
79ce3c
f1ce78
e3de78
f39c78
ff3cf0
7e78f0
38f0f0
01e1e0
01e1e0
03c1e0
03c3c0
03c3c0
0783c0
078780
078780
0f0780
0f0f00
7fff00
7ffe00
fff800
c00000
ENDCHAR
STARTCHAR sterling
ENCODING 163
SWIDTH 403 0
DWIDTH 28 0
BBX 26 25 2 -1
BITMAP
01c783c0
07ffc3c0
0fffc780
1c79e780
3801c780
7f83cf00
7fc78f00
79cf0f00
f1de1e00
e1de1e00
f3bc1e00
ff3c1c00
7e3c3c00
3c783c00
00783800
00787800
00787800
00f07000
00f0f000
00f0f000
01e1e000
0fffe000
0fffc000
0fff0000
18000000
ENDCHAR
STARTCHAR currency
ENCODING 164
SWIDTH 360 0
DWIDTH 25 0
BBX 22 24 2 0
BITMAP
001fc0
00fff0
03fff8
0fc0fc
1f007c
1c003c
3c7c3c
39fe3c
79fe78
738e78
770e78
770c70
7ffcf0
7ff8f0
7fe0e0
7e01e0
3c01e0
3c01c0
3c03c0
7803c0
7803c0
780780
780780
f00780
ENDCHAR
STARTCHAR yen
ENCODING 165
SWIDTH 360 0
DWIDTH 25 0
BBX 22 24 2 0
BITMAP
003060
01fff8
03fff8
0ffffc
1f0c3c
1c003c
3c7c3c
39fe3c
79fe78
738e78
770e78
770c70
7ffcf0
7ff8f0
7fe0e0
7e01e0
3c01e0
3c01c0
3c03c0
7803c0
7803c0
780780
780780
f00780
ENDCHAR
STARTCHAR brokenbar
ENCODING 166
SWIDTH 460 0
DWIDTH 32 0
BBX 30 24 2 0
BITMAP
01c3003c
07ffc03c
0fffc078
1ef9e078
3821e078
7f83c0f0
7fc780f0
7fcf00f0
f1de01e0
e1de01e0
e3bc01e0
ffbc03c0
7f3c03c0
3cfe03c0
03ff8380
07ffe780
0ff7f780
1cf0ff00
3cf07f00
39e07f00
39e03f00
3fe03e00
3fc03e00
1f803e00
ENDCHAR
STARTCHAR section
ENCODING 167
SWIDTH 288 0
DWIDTH 20 0
BBX 18 25 2 -1
BITMAP
000f00
003fc0
007fc0
0071c0
00e1c0
00e380
00f780
10ff80
707f00
f80f00
f80f00
781e00
781e00
7c1e00
7c3e00
3c3c00
3c3c00
3e3c00
3e7800
1e7800
1ef800
1ff000
0ff000
0fc000
030000
ENDCHAR
STARTCHAR diaeresis
ENCODING 168
SWIDTH 345 0
DWIDTH 24 0
BBX 19 24 3 0
BITMAP
00fe00
07ff80
0fffc0
3f07e0
7c01e0
7001e0
2001e0
0001e0
1f81c0
3fc3c0
7fc3c0
61c380
e1c780
e3c780
ffc700
ffcf00
3bcf00
03ce00
03de00
03de00
03dc00
03fc00
03f800
01f000
ENDCHAR
STARTCHAR copyright
ENCODING 169
SWIDTH 403 0
DWIDTH 28 0
BBX 24 24 1 0
BITMAP
0007f0
003ffc
00fffe
01f87e
07c01e
07801e
03001e
00001e
0f001e
1f803c
7fc03c
71c03c
e1c078
e380fc
ff87fe
ff9fff
7f7eff
0ff8f7
0fe1e7
1f81e7
1f01ee
1e03fe
3e03fc
3c01f0
ENDCHAR
STARTCHAR ordfeminine
ENCODING 170
SWIDTH 360 0
DWIDTH 25 0
BBX 26 27 3 -1
BITMAP
00000080
00000180
01f803c0
0ffc0f80
1ffe1f00
3fde7e00
79eff800
71cff000
f1dff000
f3def800
ffbcf000
7f78f000
38f0f000
01f1f000
01e1e000
03e1e000
03c3e000
03c3c000
07c3c000
0787c000
07878000
07878000
0f0f8000
7fff0000
7ffe0000
fffc0000
c0000000
ENDCHAR
STARTCHAR guillemotleft
ENCODING 171
SWIDTH 388 0
DWIDTH 27 0
BBX 29 27 1 -1
BITMAP
00000010
00000030
01e78078
07ffc1f0
0fffe3e0
1c79efc0
3801ff00
7f81fe00
7fc1fe00
f9c39e00
f1c79e00
f1cf1e00
f39e1e00
ffbc3e00
7f3c3c00
3c783c00
00787c00
00787800
00f87800
00f0f800
00f0f000
00f0f000
01e1e000
0fffe000
0fffc000
1fff8000
18000000
ENDCHAR
STARTCHAR notsign
ENCODING 172
SWIDTH 475 0
DWIDTH 33 0
BBX 32 24 1 0
BITMAP
001fe00f
00fff00f
03fff81e
07c0781e
0f00381e
1fc0383c
1ff0383c
03e0783c
07e07038
0f007078
0e00f078
1e00e070
1c00e0f0
3c01e0f0
3c01c0e0
3c03c0e0
7f0ff1e0
7f9ff9c0
739bffc0
e1b39fc0
c3378fc0
e7370f80
fe3f0780
7c3e0780
ENDCHAR
STARTCHAR hyphen
ENCODING 173
SWIDTH 475 0
DWIDTH 33 0
BBX 32 35 3 -11
BITMAP
001fe00f
00fff00f
03fff81e
07c0781e
0f00381e
1fc0383c
1ff0383c
03e0783c
07e07038
0f007078
0e00f078
1e00e070
1c00e0f0
3c01e0f0
3c01e0e0
3c01c0e0
7f03c1e0
7f83c1c0
738381c0
e18783c0
c3078780
c31fff80
fe3fff00
7c3ffe00
00200000
001c0f00
007e1e00
00fe1e00
01c61e00
01863c00
01867800
01fcf000
01ffe000
01ffc000
00ff0000
ENDCHAR
STARTCHAR registered
ENCODING 174
SWIDTH 403 0
DWIDTH 28 0
BBX 29 35 -1 -11
BITMAP
00007fc0
0003ffe0
000ffff0
001f81f8
007c00f8
007f00f8
007fc0f8
000fc0f8
001f80f0
003c00f0
007c01f0
007801e0
00f801e0
00f003e0
00f003c0
07f003c0
1fe007c0
3fe00780
38e00780
70c00f80
71c00f00
73c00f00
7f801f00
7e071e00
000f1e00
07ce3e00
1ffe3c00
3ffe3c00
7dff3c00
707ff800
f0fff800
f1e7f800
ffc3f000
ff83f000
7e01f000
ENDCHAR
STARTCHAR macron
ENCODING 175
SWIDTH 403 0
DWIDTH 28 0
BBX 29 35 -1 -11
BITMAP
00007fc0
0001ffe0
0007fff0
001f81f8
003c00f8
007f0078
007fc078
0007c078
001f80f0
003c00f0
003c00f0
007800e0
007801e0
007001e0
00f001c0
03f003c0
0fe003c0
1fe00380
30e00780
70c00780
61c00700
73c00f00
7f800f00
3f1c0e00
001c1e00
00381e00
06381c00
1ff03c00
3ff13c00
73e7b800
e1fff800
e3fff800
ff7bf000
fe71f000
7c20f000
ENDCHAR
STARTCHAR degree
ENCODING 176
SWIDTH 302 0
DWIDTH 21 0
BBX 31 37 -6 -13
BITMAP
00003f80
0000fffe
0003fffe
0007c1fe
000fe038
001ffe00
0007ff80
00003fc0
000007c0
0003c3c0
000fe380
001fe380
0038e780
0030f700
0030f700
003fff00
003fff00
003f7e00
00007e00
00007e00
00007c00
00007c00
00007c00
00007800
00000000
0001e000
0033f000
00677000
00663000
00ec3000
1ecee000
7f8fe000
6787e000
c399c000
c7ff8000
fdff0000
788c0000
ENDCHAR
STARTCHAR plusminus
ENCODING 177
SWIDTH 460 0
DWIDTH 32 0
BBX 30 24 2 0
BITMAP
01c70070
07ffc1fc
0fffc3fc
1c79c7fc
3801cf3c
7f83ce38
7fc79c38
f9cf3c78
f1de7878
e19e7070
e3bcf0f0
ff3de0f0
7e3fc0e0
387b81e0
007f81e0
007f01c0
007e03c0
00fe03c0
00fc0380
00f80780
01f00780
01f00700
01e00f00
03c00f00
ENDCHAR
STARTCHAR twosuperior
ENCODING 178
SWIDTH 489 0
DWIDTH 34 0
BBX 32 24 2 0
BITMAP
0060c00f
01fde00f
03fff01e
073f781e
0c04381e
1800181c
303c383c
30fc383c
61fc3038
61047038
63047078
630c6070
e3f8e070
63f0e070
61f0c0e0
60e1c0e0
61c7f0e0
638ffcc0
771bffc0
7e139fc0
7c1387c0
7c330780
781f0780
f01e0380
ENDCHAR
STARTCHAR threesuperior
ENCODING 179
SWIDTH 489 0
DWIDTH 34 0
BBX 32 24 1 0
BITMAP
001fe00f
00fff00f
03fff81e
07c0781e
0f00381e
1fc0381c
1ff0383c
03e0783c
07e07038
0f007078
0e00f078
1e00f070
1c00e070
3c01e0f8
3c01e7fc
3c01effe
7f03fdfe
7f83f1ce
7383e3ce
e187c3cc
c307c39c
e70783f8
fe0f03f0
7c0f03e0
ENDCHAR
STARTCHAR acute
ENCODING 180
SWIDTH 360 0
DWIDTH 25 0
BBX 22 24 1 0
BITMAP
001fc0
00fff0
03fff8
07c0fc
0f007c
1e003c
3c3c3c
38fe3c
71fe38
718678
738678
738e70
73fcf0
73fcf0
71f8e0
70f0e0
71e1e0
73c1e0
7781c0
7f03c0
7e03c0
7c0380
780780
f00780
ENDCHAR
STARTCHAR mu
ENCODING 181
SWIDTH 360 0
DWIDTH 25 0
BBX 23 24 1 0
BITMAP
003030
00fdf8
03fffc
07dfbe
0f043e
1e001e
3c3e3e
3cff3e
79ff3c
79c77c
7bc77c
7bcf78
fbfef8
7bfcf8
79f8f0
78f0f0
79e1f0
7bc1e0
7f81e0
7f03e0
7e03c0
7c03c0
7807c0
f00780
ENDCHAR
STARTCHAR paragraph
ENCODING 182
SWIDTH 374 0
DWIDTH 26 0
BBX 23 24 1 0
BITMAP
001fe0
007ff8
01fffc
07e07e
0f003e
1fc01e
1ff01e
03f01e
07e03c
0f003c
1f003c
1e0078
1e0078
3c0078
3c00f0
3f00f0
7f80f0
7fc1e0
71c1e0
e1c1e0
e183c0
f383c0
ff03c0
7e0380
ENDCHAR
STARTCHAR periodcentered
ENCODING 183
SWIDTH 403 0
DWIDTH 28 0
BBX 24 24 3 0
BITMAP
07801c
1fc07f
3fc0ff
71c1ff
61c3cf
61c38e
7f870e
7f8f1e
3f9e1e
0f9c1c
0f3c3c
0f783c
1ff038
1ee078
1fe078
1fc070
3f80f0
3f80f0
3f00e0
7e01e0
7c01e0
7c01c0
f803c0
f003c0
ENDCHAR
STARTCHAR cedilla
ENCODING 184
SWIDTH 316 0
DWIDTH 22 0
BBX 25 25 -1 -1
BITMAP
000fc000
003ffd80
00ffff80
01e07f80
03c00600
07ff8000
07ffe000
0ffff000
0001f000
00e0f000
01e07000
01e0f000
01c0f000
03c0e000
03c1e000
03c1e000
0781c000
0783c000
0783c000
07038000
0f078000
7fff8000
7fff0000
fffe0000
c0000000
ENDCHAR
STARTCHAR onesuperior
ENCODING 185
SWIDTH 388 0
DWIDTH 27 0
BBX 23 24 3 0
BITMAP
07801e
1fc01e
3fc03c
30c03c
70c03c
71c038
7f8078
7f8078
3f8070
0780f0
0f00f0
0f00e0
0f00e0
1e03f0
1e0ff8
1e7ffc
1cfbfc
3de39c
3f879c
3f0798
7e0738
7c07f0
7807e0
f007c0
ENDCHAR
STARTCHAR masculine
ENCODING 186
SWIDTH 374 0
DWIDTH 26 0
BBX 28 25 -1 -1
BITMAP
00f000f0
03fc00f0
07fc01e0
0f3c01e0
0e3c01e0
0e3803c0
0ff803c0
0ff807c0
07f00780
00f00780
00f00f80
01e00f00
01e00f00
01e01f00
03c01e00
03c01e00
03c03e00
07803c00
07803c00
07807c00
0f00f800
7ffff800
7ffff000
ffffc000
c0000000
ENDCHAR
STARTCHAR guillemotright
ENCODING 187
SWIDTH 374 0
DWIDTH 26 0
BBX 31 34 -3 -1
BITMAP
0000001e
0000003e
0000003c
0000003c
0000007c
00000078
00000078
000000f8
000000f0
00f000f0
03fc01f0
07fc01e0
0f3c01e0
0e3c03e0
0e3803c0
0ff803c0
0ff807c0
07f00780
00f00780
00f00f80
01e00f00
01e00f00
01e01f00
03c01e00
03c01e00
03c03e00
07803c00
07803c00
07807c00
0f00f800
7ffff800
7ffff000
ffffc000
c0000000
ENDCHAR
STARTCHAR onequarter
ENCODING 188
SWIDTH 374 0
DWIDTH 26 0
BBX 27 24 -1 0
BITMAP
003e01e0
00ff01e0
01ff03c0
01c703c0
038703c0
038f0780
03de0780
07fc0780
07f80f00
07800f00
0f820f00
0f061e00
0f1f1e00
1e3f1e00
1e7fbc00
1ff7fc00
1fc3fc00
3f83f800
3f01f800
3e01f800
7c00f800
7800f000
7000f000
f000f000
ENDCHAR
STARTCHAR onehalf
ENCODING 189
SWIDTH 374 0
DWIDTH 26 0
BBX 30 33 -2 0
BITMAP
0000003c
0000003c
00000078
00000078
00000078
000000f0
000000f0
000000f0
000001e0
003e01e0
00ff01e0
01ff03c0
01c703c0
038703c0
038e0780
03de0780
07fc0780
07f80f00
07800f00
0f020f00
0f061e00
0f1f1e00
1e3f1e00
1e7fbc00
1ff7fc00
1fc3fc00
3f83f800
3f01f800
3e01f800
7c00f000
7800f000
7000f000
f000e000
ENDCHAR
STARTCHAR threequarters
ENCODING 190
SWIDTH 417 0
DWIDTH 29 0
BBX 28 24 2 0
BITMAP
078000f0
1fc040f0
3fe0c1e0
79e0c1e0
71c1c1e0
71c3c3c0
7fc7e3c0
7f8fe3c0
3f9fe780
079fe780
0f3de780
0f79ff00
0ff0ff00
1fe0ff00
1fe0fe00
1fc0fe00
1f80fe00
3f00fc00
3e00fc00
3e007c00
7c007c00
78007800
78007800
f0007800
ENDCHAR
STARTCHAR questiondown
ENCODING 191
SWIDTH 417 0
DWIDTH 29 0
BBX 31 33 0 0
BITMAP
0000001e
0000001e
0000003c
0000003c
0000003c
00000078
00000078
00000078
000000f0
078000f0
1fc040f0
3fe0c1e0
79e0c1e0
71c1c1e0
71c3c3c0
7fc7e3c0
7f8fe3c0
3f9fe780
079fe780
0f3de780
0f79ff00
0ff0ff00
1fe0ff00
1fe0fe00
1fc0fe00
3f80fe00
3f00fc00
3e007c00
3e007c00
7c007800
78007800
78007800
f0007000
ENDCHAR
STARTCHAR Agrave
ENCODING 192
SWIDTH 403 0
DWIDTH 28 0
BBX 28 24 -2 0
BITMAP
0000ff00
0007ffc0
001fffe0
003f03f0
007801f0
00fe00f0
00ff80f0
001f80f0
003f01e0
007801e0
007801e0
00f003c0
00f003c0
01e003c0
01e00780
07e00780
1fc00780
3fc00700
71c00f00
e1800f00
e1800e00
e7801e00
ff001e00
7e001c00
ENDCHAR
STARTCHAR Aacute
ENCODING 193
SWIDTH 388 0
DWIDTH 27 0
BBX 28 24 -1 0
BITMAP
007800f0
01fc00f0
03fe01e0
079e01e0
071c01e0
071c03c0
07fc03c0
07f803c0
03f80780
00780780
00f00780
00f00f00
00f00f00
03f80f00
0fff1e00
1fff9e00
3fdfde00
73c7fc00
73c3fc00
e781fc00
e780fc00
ff80f800
ff00f800
7e00f800
ENDCHAR
STARTCHAR Acircumflex
ENCODING 194
SWIDTH 360 0
DWIDTH 25 0
BBX 26 25 -1 -1
BITMAP
001f03c0
007f83c0
00ff8780
01f38780
03e38780
03e70f00
07ff0f00
07fe0f00
07781e00
07801e00
07c01e00
07f83c00
01f83c00
07f03c00
0fc07800
1f007800
1e00f800
3c00f000
3c00f000
7c01f000
7803e000
7fffe000
7fffc000
ffff8000
c0000000
ENDCHAR
STARTCHAR Atilde
ENCODING 195
SWIDTH 316 0
DWIDTH 22 0
BBX 21 24 3 0
BITMAP
01fe00
07fff8
1ffff8
3c07f8
780000
7ff000
fffc00
07fe00
001f00
000f00
000f00
000f00
000e00
001e00
001e00
00fc00
03fc00
07fc00
0e3800
0c3800
0c3800
0ff000
0fe000
07c000
ENDCHAR
STARTCHAR Adiaeresis
ENCODING 196
SWIDTH 374 0
DWIDTH 26 0
BBX 23 36 3 -12
BITMAP
001fe0
007ff8
01fffc
07e07e
0f003e
1fc01e
1ff01e
03f01e
07e03c
0f003c
1f003c
1e0078
1e0078
3c0078
3c00f0
3f00f0
7f80f0
7fc1e0
71c1e0
e1c1e0
e183c0
e783c0
ff03c0
7e0780
000780
000780
000f00
000f00
000f00
001e00
001e00
001e00
003c00
003c00
003c00
007800
ENDCHAR
STARTCHAR Aring
ENCODING 197
SWIDTH 360 0
DWIDTH 25 0
BBX 22 24 1 0
BITMAP
001fc0
00fff0
01fff8
07c0fc
0f003c
06003c
04003c
00f03c
03fc38
07fc78
0f3e78
1e1e70
1c0ff0
3c0ff0
3807e0
3f07e0
7f87e0
7fc7c0
71c7c0
e1c7c0
e18780
f78780
ff0780
7e0700
ENDCHAR
STARTCHAR AE
ENCODING 198
SWIDTH 403 0
DWIDTH 28 0
BBX 28 36 0 -12
BITMAP
0000ff80
0007ffc0
001fffe0
003f03f0
007801f0
00fe00f0
00ff80f0
001f80f0
003f01e0
007801e0
007801e0
00f003c0
00f003c0
01e003c0
01e00780
07e00780
1fc00780
3fc00f00
71c00f00
e1800f00
e1801e00
e7801e00
ff001e00
7e003c00
00003c00
00003c00
00003800
00007800
00007800
00007000
0000f000
0000f000
0000f000
0001e000
0001e000
0001e000
ENDCHAR
STARTCHAR Ccedilla
ENCODING 199
SWIDTH 316 0
DWIDTH 22 0
BBX 19 24 2 0
BITMAP
00fe00
07ff80
1fffc0
3f07e0
7c03e0
f003e0
6003e0
0003e0
0003c0
0003c0
0007c0
000780
000780
000f80
000f00
007f00
01ff00
03fe00
079e00
071e00
071c00
073c00
07f800
07f000
ENDCHAR
STARTCHAR Egrave
ENCODING 200
SWIDTH 360 0
DWIDTH 25 0
BBX 27 25 1 0
BITMAP
00000180
003fe1e0
01fffbc0
03ffff80
0fc0ff80
1f007e00
1e007e00
3c7ffc00
39fffc00
79ffbc00
7bcf7c00
7f8e7800
7f8e7800
7ffcf800
7ff8f000
7ff0f000
7e01f000
3e01e000
3e01e000
3c03e000
7c03c000
7803c000
7807c000
78078000
f0078000
ENDCHAR
STARTCHAR Eacute
ENCODING 201
SWIDTH 388 0
DWIDTH 27 0
BBX 31 25 -1 -1
BITMAP
00f000f0
03f801e0
07fc01e0
0f3c01e0
0e3c03c0
0e3803c0
0ff803c0
0ff8c79e
07f3f79c
00f777bc
00fe7f38
01ee6f70
01efefe0
01efffc0
03c7ff00
03c1fe00
03c01e00
07803c00
07803c00
07807c00
0f00f800
7ffff800
7ffff000
ffffc000
c0000000
ENDCHAR
STARTCHAR Ecircumflex
ENCODING 202
SWIDTH 360 0
DWIDTH 25 0
BBX 26 27 0 0
BITMAP
00000100
00000380
000003c0
001fc780
00ffff00
01fffe00
07c0fc00
0f007c00
0600fc00
0401fc00
00f9bc00
03fffc00
07ff7800
0f3f7800
1e0f7800
1c0ff000
3c0ff000
3807f000
3f07e000
7fc7e000
7fc7e000
71c7c000
f1c7c000
e187c000
f3878000
ff078000
7e078000
ENDCHAR
STARTCHAR Ediaeresis
ENCODING 203
SWIDTH 388 0
DWIDTH 27 0
BBX 25 24 1 0
BITMAP
07801f00
1fe07f80
3fe0ff80
79e1e780
71e1c780
71c1c700
7fc1ff00
7fc1fe00
3f83fc00
078ffc00
079fbc00
0f7e3c00
0ff87c00
0ff07c00
1fe07800
1fc0f800
1f80f800
3f00f000
3e00f000
3e01f000
7c01e000
7801e000
7803e000
f003c000
ENDCHAR
STARTCHAR Igrave
ENCODING 204
SWIDTH 432 0
DWIDTH 30 0
BBX 32 27 2 0
BITMAP
000003c4
000007e6
00000ee7
0700187e
1f80187c
3f801ff8
71811fe0
61810fc0
61838780
7f878780
7f8f8780
3f0fc700
0f1fcf00
1f3bcf00
1f73ee00
1ff3ee00
1ee1fe00
3fc1fc00
3f81fc00
3f01fc00
3e00f800
7c00f800
7c00f800
78007000
70007000
f0007000
f000e000
ENDCHAR
STARTCHAR Iacute
ENCODING 205
SWIDTH 360 0
DWIDTH 25 0
BBX 23 24 0 0
BITMAP
001fe0
00fff8
01fffc
07e07e
0f803e
06001e
00001e
00401e
03f03c
07f83c
0f783c
1c3878
1c7078
3c7078
3fe0f0
3fc0f0
3f00f0
7801e0
7801e0
7801e0
f803c0
ffffc0
ffff80
7fff00
ENDCHAR
STARTCHAR Icircumflex
ENCODING 206
SWIDTH 360 0
DWIDTH 25 0
BBX 28 25 0 0
BITMAP
001fe040
00fff8e0
01fffff0
03f0ffe0
07803fc0
07003f80
0780ff00
07fffe00
07fffe00
00ff9e00
01c03c00
07f03c00
0ff03c00
1e707800
1c707800
3cf07800
3fe0f800
3fc0f000
7f81f000
7801f000
7801e000
f803e000
ffffc000
ffffc000
7fff0000
ENDCHAR
STARTCHAR Idiaeresis
ENCODING 207
SWIDTH 345 0
DWIDTH 24 0
BBX 20 25 4 -1
BITMAP
07c0f0
1fe0f0
3fe1e0
38e1e0
78e3e0
70e3c0
ffc7c0
ff8fc0
ff1f80
f03f80
ffff80
7fff00
3fef00
1f0f00
000e00
001e00
001e00
001c00
003c00
003c00
00f800
07f000
0fe000
0f8000
0e0000
ENDCHAR
STARTCHAR ETH
ENCODING 208
SWIDTH 273 0
DWIDTH 19 0
BBX 22 24 -1 0
BITMAP
00f830
01fc3c
03fc78
079c78
071cf0
0639f0
0fffe0
07ffc0
07ff00
01f800
000000
000000
000000
000000
0f0300
3f8780
7f8780
738f00
e18f00
e3be00
fffc00
fff800
7ff000
3f8000
ENDCHAR
STARTCHAR Ntilde
ENCODING 209
SWIDTH 0 0
DWIDTH 0 0
BBX 21 10 -15 28
BITMAP
0f0000
3f8070
7f8078
7380f0
e181e0
e307c0
ff1f80
fffe00
7ffc00
1fe000
ENDCHAR
STARTCHAR Ograve
ENCODING 210
SWIDTH 288 0
DWIDTH 20 0
BBX 17 24 2 0
BITMAP
01fc00
07ff00
1fff80
3e0f80
780780
f00780
700780
000f00
000f00
000f00
001e00
001e00
001e00
003c00
003c00
003c00
007800
007800
007800
00f000
00f000
00f000
00e000
01e000
ENDCHAR
STARTCHAR Oacute
ENCODING 211
SWIDTH 288 0
DWIDTH 20 0
BBX 25 37 -8 0
BITMAP
0f800000
3fc00000
7fc00000
71c00000
e1c00000
e3800000
ff800000
ff000000
7c000000
00000000
00000000
00000000
00000000
0001fc00
0007ff00
001fff80
003e0f80
00780f80
00f00780
00600f80
00000f00
00000f00
00000f00
00001e00
00001e00
00001e00
00003c00
00003c00
00003c00
00007800
00007800
00007800
0000f000
0000f000
0000f000
0001e000
0001e000
ENDCHAR
STARTCHAR Ocircumflex
ENCODING 212
SWIDTH 0 0
DWIDTH 0 0
BBX 18 10 -23 28
BITMAP
001800
01ff00
03ff80
0f8780
1e03c0
3fe1c0
7fffc0
7fffc0
803fc0
0001c0
ENDCHAR
STARTCHAR Otilde
ENCODING 213
SWIDTH 43 0
DWIDTH 3 0
BBX 22 12 -22 28
BITMAP
00003c
000038
003c78
01ff78
07fff0
0f87f0
1e01f0
3ff1e0
7fffe0
7fffe0
001fe0
0000e0
ENDCHAR
STARTCHAR Odiaeresis
ENCODING 214
SWIDTH 0 0
DWIDTH 0 0
BBX 22 13 -24 28
BITMAP
000030
0000fc
0001fc
003f9c
01ffbc
07fff8
0f87f0
1e01e0
3ff9e0
7fffe0
7fffe0
001fe0
0000e0
ENDCHAR
STARTCHAR multiply
ENCODING 215
SWIDTH 43 0
DWIDTH 3 0
BBX 22 12 -22 28
BITMAP
0007bc
000738
003f38
01ff78
07fff0
0f87f0
1e01f0
3ff1e0
7fffe0
7fffe0
001fe0
0000e0
ENDCHAR
STARTCHAR Ooblique
ENCODING 216
SWIDTH 0 0
DWIDTH 0 0
BBX 10 14 -12 -17
BITMAP
0f80
3fc0
7fc0
71c0
e1c0
e380
ff80
ff80
7f00
0f00
0f00
0e00
1e00
1e00
ENDCHAR
STARTCHAR Ugrave
ENCODING 217
SWIDTH 0 0
DWIDTH 0 0
BBX 17 15 -18 -18
BITMAP
0f8780
3fc780
7fcf00
71cf00
e1cf00
e39e00
ff9e00
ff9e00
7f3c00
0f3c00
0f3c00
0ff800
0ff800
0fe000
038000
ENDCHAR
STARTCHAR Uacute
ENCODING 218
SWIDTH 0 0
DWIDTH 0 0
BBX 5 5 -8 -9
BITMAP
38
78
f8
f0
60
ENDCHAR
STARTCHAR Ucircumflex
ENCODING 219
SWIDTH 0 0
DWIDTH 0 0
BBX 5 5 -8 -18
BITMAP
78
78
f8
f0
40
ENDCHAR
STARTCHAR Udiaeresis
ENCODING 220
SWIDTH 0 0
DWIDTH 0 0
BBX 1 1 0 0
BITMAP
00
ENDCHAR
STARTCHAR Yacute
ENCODING 221
SWIDTH 0 0
DWIDTH 0 0
BBX 1 1 0 0
BITMAP
00
ENDCHAR
STARTCHAR THORN
ENCODING 222
SWIDTH 0 0
DWIDTH 0 0
BBX 1 1 0 0
BITMAP
00
ENDCHAR
STARTCHAR ssharp
ENCODING 223
SWIDTH 403 0
DWIDTH 28 0
BBX 29 34 -1 -2
BITMAP
00001c00
00001c00
00001c00
007fff80
007fffe0
007ffff0
00fffff8
00fffff8
00f87ff8
01f861f8
01f8e1f8
01f8e1f0
03f0c1f0
03f1c3e0
03f1ffe0
07ffffc0
07ffff80
07ffff00
0fffff80
0fffff80
0fc7ffc0
1f870fc0
1f860fc0
1f8e0f80
3f0e0f80
3f0c1f00
3f1fff00
7ffffe00
7ffffc00
7ffff800
ffffe000
ffff8000
00700000
00700000
ENDCHAR
STARTCHAR agrave
ENCODING 224
SWIDTH 187 0
DWIDTH 13 0
BBX 11 24 0 0
BITMAP
01e0
01e0
03c0
03c0
03c0
0780
0780
0780
0f00
0f00
1f00
1e00
1e00
3e00
3c00
3f80
7fc0
7fc0
71c0
f1c0
f3c0
ff80
ff00
7e00
ENDCHAR
STARTCHAR aacute
ENCODING 225
SWIDTH 345 0
DWIDTH 24 0
BBX 22 24 0 0
BITMAP
03e03c
03c03c
03c078
03c078
078078
0780f0
0780f0
0f00f0
0f01e0
0f01e0
1e01e0
1e03c0
1e03c0
3c07c0
3c0780
3f87f0
7fcff8
7fcff8
71ce38
f1de38
e3de78
ff9ff0
ff1fe0
7e0fc0
ENDCHAR
STARTCHAR acircumflex
ENCODING 226
SWIDTH 230 0
DWIDTH 16 0
BBX 22 43 0 0
BITMAP
001e00
00ff84
01fffc
07fffc
0fe3f8
07f840
01fc00
007c00
003c00
003c00
007c00
007800
007800
00f800
00f000
00f000
01f000
01e000
01e000
03e000
03c000
03c000
07c000
078000
078000
078000
0f0000
0f0000
0f0000
1e0000
1e0000
1e0000
3c0000
3c0000
3f8000
7fc000
7fc000
71c000
f1c000
f3c000
ff8000
ff0000
7e0000
ENDCHAR
STARTCHAR atilde
ENCODING 227
SWIDTH 230 0
DWIDTH 16 0
BBX 15 43 0 0
BITMAP
0078
01fc
07fe
0f1e
0f9e
1fde
1fde
39fc
3bbc
3fbc
1f78
0078
0078
00f0
00f0
00f0
01e0
01e0
01e0
03c0
03c0
03c0
0780
0780
0780
0f80
0f00
0f00
0f00
1e00
1e00
1e00
3c00
3c00
3f00
7f80
7fc0
71c0
e180
e380
ff00
ff00
7c00
ENDCHAR
STARTCHAR adiaeresis
ENCODING 228
SWIDTH 273 0
DWIDTH 19 0
BBX 16 43 3 0
BITMAP
0c0e
1c1f
3c3f
1c7f
1c7e
1cfe
1dfe
1dfc
1fbc
1fbc
1f78
3f78
3e78
1cf0
18f0
00f0
01e0
01e0
01e0
03e0
03c0
03c0
07c0
0780
0780
0780
0f00
0f00
0f00
1e00
1e00
1e00
3c00
3c00
3f80
7f80
7fc0
71c0
e1c0
e380
ff00
ff00
7c00
ENDCHAR
STARTCHAR aring
ENCODING 229
SWIDTH 288 0
DWIDTH 20 0
BBX 17 36 4 -12
BITMAP
01fc00
07ff00
1fff80
3e0f80
780780
f00780
700780
000f00
000f00
000f00
001e00
001e00
001e00
003c00
003c00
003c00
007800
007800
007800
00f000
00f000
00f000
01e000
01e000
01e000
03c000
03c000
03c000
078000
078000
078000
0f8000
0f0000
0f0000
1f0000
1e0000
ENDCHAR
STARTCHAR ae
ENCODING 230
SWIDTH 388 0
DWIDTH 27 0
BBX 18 33 9 -9
BITMAP
018700
07ef80
0fffc0
1fffc0
3c63c0
7803c0
7783c0
ff8380
ffc780
f1c780
f18700
ff8f00
7f0f00
3e0e00
001e00
001e00
001c00
003c00
003c00
003800
003800
007800
007000
007000
00f000
00e000
01e000
01c000
07c000
7f8000
7f0000
7c0000
600000
ENDCHAR
STARTCHAR ccedilla
ENCODING 231
SWIDTH 0 0
DWIDTH 0 0
BBX 21 14 -21 28
BITMAP
000078
000070
0000f0
07ffe0
1fffc0
3fff80
7c0000
700f00
ffff80
fffb80
fff380
f8f700
f07f00
603e00
ENDCHAR
STARTCHAR egrave
ENCODING 232
SWIDTH 0 0
DWIDTH 0 0
BBX 6 8 -8 43
BITMAP
3c
38
38
78
78
70
f0
f0
ENDCHAR
STARTCHAR eacute
ENCODING 233
SWIDTH 0 0
DWIDTH 0 0
BBX 16 10 -13 41
BITMAP
1e07
3f0f
7f0e
e71e
ef3c
fe78
7cf0
3fe0
7fc0
fc00
ENDCHAR
STARTCHAR ecircumflex
ENCODING 234
SWIDTH 0 0
DWIDTH 0 0
BBX 18 9 -18 41
BITMAP
1ef0c0
3ff9c0
713980
683980
fc3300
ec3600
cc6c00
f8f800
70c000
ENDCHAR
STARTCHAR ediaeresis
ENCODING 235
SWIDTH 0 0
DWIDTH 0 0
BBX 11 9 -11 42
BITMAP
0700
0700
0700
7fe0
7fc0
ffc0
1c00
1c00
1c00
ENDCHAR
STARTCHAR igrave
ENCODING 236
SWIDTH 0 0
DWIDTH 0 0
BBX 16 12 -16 39
BITMAP
0007
000e
03fe
1ff8
3fe0
7f00
7f00
f700
e700
ff00
fe00
3800
ENDCHAR
STARTCHAR iacute
ENCODING 237
SWIDTH 0 0
DWIDTH 0 0
BBX 10 9 -13 28
BITMAP
0f80
3fc0
7fc0
71c0
e1c0
e380
ff80
ff00
7c00
ENDCHAR
STARTCHAR icircumflex
ENCODING 238
SWIDTH 0 0
DWIDTH 0 0
BBX 10 9 -13 35
BITMAP
0f80
1fc0
3fc0
71c0
e1c0
e380
f780
ff00
7e00
ENDCHAR
STARTCHAR idiaeresis
ENCODING 239
SWIDTH 345 0
DWIDTH 24 0
BBX 25 24 -1 0
BITMAP
0007f000
003ffc00
00fffe00
01f01f00
03c00f00
07000780
0e1fc380
1c7fe380
38ffe380
39ffe380
71ffe380
73ffe380
63ffe300
e7ffe700
e7ffc600
e3ff8e00
e3ff1c00
e1fe3c00
f0f87800
7800f000
7c03e000
3fff8000
1ffe0000
07f80000
ENDCHAR
STARTCHAR eth
ENCODING 240
SWIDTH 345 0
DWIDTH 24 0
BBX 21 17 2 0
BITMAP
007f80
01ffe0
07fff0
0fc3f0
1f01f8
3e00f8
7c00f8
7800f8
f800f8
f800f0
f801f0
f803e0
f807c0
fc1f80
7fff00
3ffe00
1ff000
ENDCHAR
STARTCHAR ntilde
ENCODING 241
SWIDTH 360 0
DWIDTH 25 0
BBX 21 19 2 -2
BITMAP
003f80
01ffe0
07fff0
0f83f0
1e00f8
3c7cf8
79fe78
7bfe78
739e78
f79cf0
f7bcf0
f7fde0
fbf9e0
7ff3c0
7fe7c0
3f8f80
001f00
001c00
001800
ENDCHAR
STARTCHAR ograve
ENCODING 242
SWIDTH 432 0
DWIDTH 30 0
BBX 26 25 1 0
BITMAP
03000000
07800000
0f800000
07800000
07800000
07000000
0f000000
0f030700
0e1f9f80
1e3fffc0
1e7fffc0
1cf1e3c0
3dfcc3c0
3dfe0380
3bee0780
7b860780
7b8e0700
73fc0f00
f3fc0f00
f1f00e00
f0001e00
f8003e00
fffffc00
7ffff800
3fffe000
ENDCHAR
STARTCHAR oacute
ENCODING 243
SWIDTH 417 0
DWIDTH 29 0
BBX 25 17 2 0
BITMAP
00f83e00
03fe7f00
07feff80
0f0fc780
1e0f8780
3c0f0780
3c0f0780
780f0780
7f8e0700
7f9e0f00
ffde0f00
f1dc1e00
e1bc1e00
e3bc3c00
ff383c00
fe787800
7c787000
ENDCHAR
STARTCHAR ocircumflex
ENCODING 244
SWIDTH 417 0
DWIDTH 29 0
BBX 32 28 1 -1
BITMAP
0000000f
0000000f
0000000e
0000000e
0000001c
0000001c
00000038
00000038
000000f0
001f03e0
00ffffc0
03ffff80
07fffe00
0f800000
1c1e0000
3c3f0000
787f0000
78e30000
f8c30000
e0c70000
e0fe0000
e0fc0000
f87f8000
fffff800
7ffffc00
3ffff800
0fe03800
00001000
ENDCHAR
STARTCHAR otilde
ENCODING 245
SWIDTH 432 0
DWIDTH 30 0
BBX 32 28 1 -1
BITMAP
0000000f
0000000f
0000000e
0001c00e
0003e01c
0007f01c
000ff038
000c3078
001860f0
001fe3e0
007fffc0
01ffff00
07fffc00
1f000000
1c1e0000
383f0000
707f0000
70e30000
e0c30000
e0c70000
e0fe0000
f0fc0000
f87f8000
fffff800
7ffffc00
3ffff800
0fe03800
00001000
ENDCHAR
STARTCHAR odiaeresis
ENCODING 246
SWIDTH 316 0
DWIDTH 22 0
BBX 19 27 1 0
BITMAP
020000
0f0000
0f0000
0f0000
0f0000
0f0000
0f0000
0f0000
0f0000
0fff80
0fffc0
0fffc0
0fdfe0
0c03e0
0001e0
0001e0
0701e0
1fc1c0
3fc3c0
7fc3c0
71c780
e3cf80
ffbf00
fffe00
fffc00
7ff000
3fc000
ENDCHAR
STARTCHAR division
ENCODING 247
SWIDTH 432 0
DWIDTH 30 0
BBX 32 27 0 -1
BITMAP
00000004
0000000f
0000000e
0000001e
0000001c
00000038
00000038
00000038
00000070
00f0f070
03fbf870
07fff860
0ffff8e0
1c3e3ce0
383c18e0
703c39c0
703839c0
73003980
ff807380
ffc06300
ffc0e700
f180de00
e181fc00
ff83f800
7f07e000
7e038000
00020000
ENDCHAR
STARTCHAR oslash
ENCODING 248
SWIDTH 403 0
DWIDTH 28 0
BBX 30 27 1 -1
BITMAP
0000003c
0000003c
0000003c
0000003c
00000038
00000078
00000078
00000070
000000f0
007fe3e0
01ffffe0
07ffffc0
0fffff00
1f000000
3c007c00
7800fe00
7801fe00
f1c38e00
f7e39e00
f7f7be00
fff3fe00
fefbfc00
fe7dfc00
7c7ff800
7e3ff000
3e1fe000
00020000
ENDCHAR
STARTCHAR ugrave
ENCODING 249
SWIDTH 374 0
DWIDTH 26 0
BBX 28 26 0 0
BITMAP
000000f0
000000f0
000000f0
000000f0
000000f0
000000e0
000000e0
000000e0
000001c0
00fc79c0
03ffffc0
07ffff80
0fffdf00
1f07c600
3c03c000
7803c000
7803c000
71f3e000
f3f9e000
f7f9e000
ff39e000
fe39f000
fe79f000
7ff0f000
3fe0f000
1f80c000
ENDCHAR
STARTCHAR uacute
ENCODING 250
SWIDTH 993 0
DWIDTH 69 0
BBX 70 2 0 10
BITMAP
fffffffffffffffffc
fffffffffffffffffc
ENDCHAR
STARTCHAR ucircumflex
ENCODING 251
SWIDTH 504 0
DWIDTH 35 0
BBX 35 2 0 10
BITMAP
ffffffffe0
ffffffffe0
ENDCHAR
STARTCHAR udiaeresis
ENCODING 252
SWIDTH 0 0
DWIDTH 0 0
BBX 10 15 -13 -28
BITMAP
0700
1f80
3fc0
71c0
f1c0
e180
f780
ff80
7f80
3f00
0f00
0f00
1e00
1e00
1e00
ENDCHAR
STARTCHAR yacute
ENCODING 253
SWIDTH 0 0
DWIDTH 0 0
BBX 17 15 -18 -28
BITMAP
070000
1f8780
3fc700
71cf00
f1cf00
e3ce00
f79e00
ff9e00
7f9c00
3f3c00
0f3c00
0f7800
1ff800
0ff000
07c000
ENDCHAR
STARTCHAR thorn
ENCODING 254
SWIDTH 417 0
DWIDTH 29 0
BBX 29 28 1 -1
BITMAP
0000fe00
0007ff80
001e07c0
007801e0
00e000e0
01800070
073ff830
060e1c38
0c0c1c18
181c1c18
301c1c18
30183818
6038f018
603fc030
60338010
c073c030
c073c020
c061c060
c0e1e0c0
c0e0e180
c3f0fb80
60000700
60000e00
70001c00
38007000
1e03e000
07ff8000
01f80000
ENDCHAR
STARTCHAR ydiaeresis
ENCODING 255
SWIDTH 0 0
DWIDTH 0 0
BBX 1 1 0 0
BITMAP
00
ENDCHAR
ENDFONT
